<svg width="236" height="45" viewBox="0 0 236 45" fill="none" xmlns="http://www.w3.org/2000/svg">
<path fill-rule="evenodd" clip-rule="evenodd" d="M25.9679 0L0 44.7233H51.9359L25.9679 0ZM36.0661 35.6121L10.6419 44.504L25.9679 18.2201L36.0661 35.6121Z" fill="#FCFDFF"/>
<path fill-rule="evenodd" clip-rule="evenodd" d="M98.4834 10.2074H112.797C119.194 10.2074 124.017 14.9823 124.015 21.3132C124.015 27.6463 119.191 32.4211 112.797 32.4211H103.656V44.3763H98.4834V10.2074ZM103.656 27.5675H112.797C116.271 27.5675 118.892 24.8789 118.892 21.3153C118.892 17.6922 116.329 15.0632 112.797 15.0632H103.656V27.5675Z" fill="#FCFDFF"/>
<path d="M137.324 15.0631H147.715C150.837 15.0631 153.378 17.6964 153.378 20.9322C153.378 24.1956 150.839 26.8501 147.715 26.8501H144.119L154.007 44.3784H159.772L151.738 30.8203C155.829 29.1896 158.55 25.2685 158.55 20.9343C158.55 15.0206 153.69 10.2096 147.715 10.2096H132.152V44.3784H137.324V15.0631Z" fill="#FCFDFF"/>
<path fill-rule="evenodd" clip-rule="evenodd" d="M165.371 27.2929C165.371 17.3622 173.17 9.58583 183.129 9.58583C193.113 9.58583 200.936 17.3643 200.936 27.2929C200.936 37.2215 193.113 45 183.129 45C173.172 45 165.371 37.2236 165.371 27.2929ZM170.494 27.2929C170.494 34.3923 176.042 39.9527 183.129 39.9527C190.215 39.9527 195.764 34.3923 195.764 27.2929C195.764 20.0466 190.332 14.5842 183.129 14.5842C175.925 14.5842 170.494 20.0487 170.494 27.2929Z" fill="#FCFDFF"/>
<path d="M230.828 10.2074V34.4009L212.301 10.2074H208.161V44.3784H213.333V20.1381L231.86 44.3784H236V10.2074H230.828Z" fill="#FCFDFF"/>
<path d="M78.8094 10.514L92.8531 44.1272H86.9444L75.7588 17.3516L64.5709 44.1272H58.6623L72.7081 10.514H78.8094Z" fill="#FCFDFF"/>
</svg>
