<svg width="64" height="64" viewBox="0 0 64 64" fill="none" xmlns="http://www.w3.org/2000/svg">
<circle cx="32" cy="32" r="32" fill="url(#paint0_linear)"/>
<path fill-rule="evenodd" clip-rule="evenodd" d="M32.4978 50.3502L42.7043 44.5795C43.4173 45.4484 44.4838 46 45.676 46C47.8238 46 49.5634 44.21 49.5634 42C49.5634 40.1354 48.325 38.5698 46.648 38.1259V26.43C46.648 25.33 46.0649 24.33 45.1417 23.81L34.8647 17.9952C34.9438 17.6771 34.9859 17.3436 34.9859 17C34.9859 14.79 33.2463 13 31.0986 13C28.9508 13 27.2113 14.79 27.2113 17C27.2113 17.3423 27.253 17.6745 27.3315 17.9916L17.0653 23.8002C16.1324 24.3302 15.5493 25.3302 15.5493 26.4302V38.1259C13.8722 38.5697 12.6338 40.1353 12.6338 42C12.6338 44.21 14.3734 46 16.5211 46C17.7133 46 18.7798 45.4484 19.4927 44.5796L29.699 50.3502C30.1363 50.6002 30.6125 50.7202 31.0984 50.7202C31.5843 50.7202 32.0605 50.5902 32.4978 50.3502ZM30.1267 20.8741C29.4054 20.6832 28.7652 20.2848 28.2698 19.7443L17.9983 25.5602C17.6873 25.7302 17.4929 26.0702 17.4929 26.4302V38.1259C18.1109 38.2894 18.6692 38.6052 19.128 39.0321L24.2978 36.1507C24.2964 36.1206 24.2958 36.0904 24.2958 36.06V30.95C24.2958 30.21 24.6942 29.53 25.3259 29.19L30.1267 26.5422V20.8741ZM20.4084 42C20.4084 41.5497 20.3362 41.1168 20.203 40.713L25.3598 37.8387L30.1851 40.5C30.7584 40.82 31.4484 40.82 32.0218 40.5L36.8422 37.8414L41.9941 40.7129C41.861 41.1168 41.7887 41.5497 41.7887 42C41.7887 42.2631 41.8134 42.5202 41.8604 42.7691L31.5649 48.5902C31.2733 48.7502 30.9235 48.7602 30.6319 48.5902L20.3367 42.7693C20.3838 42.5204 20.4084 42.2632 20.4084 42ZM43.0692 39.0321C43.528 38.6051 44.0864 38.2893 44.7044 38.1258V26.43C44.7044 26.07 44.51 25.73 44.199 25.56L33.925 19.7469C33.4299 20.2861 32.7906 20.6835 32.0704 20.8741V26.5368L36.881 29.19C37.5127 29.54 37.9111 30.21 37.9111 30.95V36.06C37.9111 36.0921 37.9103 36.1241 37.9088 36.1559L43.0692 39.0321ZM31.0986 19C32.1676 19 33.0422 18.1 33.0422 17C33.0422 15.9 32.1676 15 31.0986 15C30.0296 15 29.1549 15.9 29.1549 17C29.1549 17.3292 29.2332 17.6404 29.3717 17.915C29.3807 17.9298 29.3895 17.9448 29.3979 17.9602C29.4078 17.9785 29.4172 17.9969 29.4259 18.0154C29.7653 18.6036 30.3891 19 31.0986 19ZM43.8877 42.7702C43.917 42.8238 43.9408 42.879 43.9594 42.9352C44.287 43.5673 44.9348 44 45.676 44C46.7451 44 47.6197 43.1 47.6197 42C47.6197 40.9 46.7451 40 45.676 40C44.607 40 43.7324 40.9 43.7324 42C43.7324 42.2614 43.7818 42.5115 43.8714 42.7409C43.877 42.7506 43.8824 42.7603 43.8877 42.7702ZM16.5043 40.0001C15.4429 40.0095 14.5775 40.9058 14.5775 42C14.5775 43.1 15.4521 44 16.5211 44C17.2694 44 17.9225 43.559 18.247 42.9171C18.2637 42.8673 18.2843 42.8182 18.3091 42.7702C18.3145 42.7603 18.32 42.7506 18.3257 42.7409C18.4154 42.5115 18.4648 42.2614 18.4648 42C18.4648 40.9058 17.5993 40.0095 16.5379 40.0001L16.5211 40.0002L16.5043 40.0001Z" fill="#FCFDFF"/>
<defs>
<linearGradient id="paint0_linear" x1="32" y1="0" x2="32" y2="64" gradientUnits="userSpaceOnUse">
<stop stop-color="#5C6FFF"/>
<stop offset="1" stop-color="#3241F4"/>
</linearGradient>
</defs>
</svg>
